<svg width="157" height="33" viewBox="0 0 157 33" fill="none" xmlns="http://www.w3.org/2000/svg">
<path d="M45.0606 21.4382C44.2445 21.461 43.4325 21.3134 42.6746 21.0045C41.9166 20.6957 41.2287 20.232 40.6533 19.6422C40.0778 19.0524 39.6269 18.3488 39.3284 17.5749C39.0299 16.8009 38.89 15.9729 38.9174 15.1418C38.8906 14.311 39.0308 13.4834 39.3296 12.7099C39.6283 11.9364 40.0793 11.2333 40.6547 10.6439C41.2301 10.0545 41.9178 9.59122 42.6755 9.28258C43.4332 8.97394 44.2449 8.82646 45.0606 8.84921C45.9546 8.84131 46.8397 9.03117 47.6546 9.40569C48.4374 9.76365 49.1249 10.3066 49.6603 10.9895C50.2084 11.6851 50.5915 12.5001 50.7797 13.3711H48.8008C48.5475 12.5981 48.054 11.9301 47.3949 11.4682C46.7085 11.0008 45.8974 10.7603 45.0721 10.7794C44.5202 10.7632 43.9712 10.8646 43.46 11.077C42.9489 11.2894 42.4869 11.6082 42.1036 12.013C41.7066 12.4276 41.3955 12.9192 41.1887 13.4587C40.982 13.9982 40.8839 14.5745 40.9002 15.1534C40.8818 15.7262 40.9765 16.2968 41.1786 16.8316C41.3807 17.3664 41.6862 17.8544 42.0769 18.2667C42.7775 18.962 43.692 19.3901 44.6662 19.4787C45.6405 19.5673 46.615 19.311 47.4254 18.7531C48.1025 18.2581 48.5985 17.5474 48.8351 16.7334H50.8332C50.5748 18.0808 49.8561 19.2913 48.8046 20.1501C47.7425 21.0116 46.418 21.4673 45.0606 21.4382Z" fill="white"/>
<path d="M52.7422 21.2283V8.46802H54.6524V21.2283H52.7422Z" fill="white"/>
<path d="M65.0317 11.8419H66.4949V21.2283H64.9668L64.7796 20.0803C64.3473 20.5308 63.8282 20.8855 63.2549 21.1219C62.6816 21.3583 62.0664 21.4713 61.4482 21.454C60.8108 21.4723 60.1766 21.3567 59.585 21.1143C58.9934 20.8719 58.4572 20.508 58.0098 20.0452C57.5595 19.5869 57.2053 19.0401 56.9689 18.438C56.7324 17.8359 56.6187 17.1912 56.6345 16.5429C56.6172 15.8936 56.7298 15.2476 56.9654 14.6441C57.2011 14.0406 57.5548 13.4922 58.0052 13.0324C58.4555 12.5726 58.993 12.211 59.5849 11.9695C60.1768 11.7281 60.8108 11.6118 61.4482 11.6279C62.0728 11.6094 62.6944 11.7238 63.2733 11.9636C63.8521 12.2035 64.3755 12.5636 64.8101 13.0211L65.0317 11.8419ZM59.4234 18.7338C59.7064 19.0232 60.0446 19.2506 60.4171 19.4018C60.7897 19.5531 61.1887 19.6251 61.5895 19.6133C61.9882 19.6259 62.3852 19.5543 62.7554 19.403C63.1256 19.2516 63.461 19.0237 63.7404 18.7338C64.0204 18.4433 64.2396 18.098 64.3847 17.7188C64.5298 17.3395 64.5979 16.9342 64.5847 16.5273C64.598 16.121 64.53 15.7163 64.3849 15.3376C64.2397 14.9589 64.0205 14.6143 63.7404 14.3247C63.4585 14.0367 63.1214 13.8109 62.75 13.6616C62.3786 13.5123 61.9809 13.4426 61.5819 13.4569C61.0479 13.4484 60.521 13.5826 60.0538 13.8461C59.5997 14.1048 59.2244 14.4858 58.9688 14.9474C58.709 15.4299 58.5773 15.9732 58.5867 16.5234C58.57 16.9306 58.6357 17.3369 58.7796 17.7172C58.9235 18.0974 59.1427 18.4435 59.4234 18.7338Z" fill="white"/>
<path d="M73.6149 11.7874H74.4325V13.6203H73.443C71.8664 13.6203 71.0782 14.4868 71.0782 16.2198V21.2282H69.168V11.8419H70.4478L70.7725 13.1261C71.1012 12.6815 71.5327 12.3266 72.0286 12.093C72.5245 11.8594 73.0695 11.7545 73.6149 11.7874Z" fill="white"/>
<path d="M75.8867 10.3787V8.39795H77.8504V10.3787H75.8867ZM75.9211 21.2283V11.8419H77.8313V21.2283H75.9211Z" fill="white"/>
<path d="M84.6277 19.4575H85.6668V21.2125H84.2686C83.6651 21.2328 83.0662 21.099 82.5265 20.8234C82.0351 20.5644 81.6346 20.1565 81.3804 19.6559C81.1214 19.1095 80.9956 18.5074 81.0136 17.9009V13.4918H79.3594V13.126L82.5685 9.65088H82.8932V11.8418H85.6248V13.4918H82.9085V17.7335C82.8938 17.9679 82.9258 18.2028 83.0027 18.4242C83.0795 18.6455 83.1995 18.8488 83.3555 19.0216C83.5285 19.1767 83.7301 19.2952 83.9485 19.37C84.1669 19.4448 84.3978 19.4746 84.6277 19.4575Z" fill="white"/>
<path d="M94.0804 11.8418H96.109L91.876 21.4032C91.5125 22.3424 90.9578 23.1926 90.2485 23.8977C89.6174 24.394 88.8328 24.6438 88.0365 24.6021H87.1005V22.8625H87.8875C88.359 22.9026 88.8294 22.7732 89.217 22.4967C89.6275 22.0636 89.9473 21.5498 90.1568 20.9868L90.3631 20.551L86.3594 11.8418H88.4224L91.3259 18.3951L94.0804 11.8418Z" fill="white"/>
<path d="M106.658 15.0564H113.042C113.082 16.7604 112.463 18.4121 111.319 19.6561C110.766 20.2471 110.098 20.7127 109.356 21.0225C108.615 21.3323 107.818 21.4794 107.017 21.454C106.205 21.4789 105.396 21.3328 104.641 21.0248C103.886 20.7168 103.202 20.2535 102.631 19.6639C102.053 19.0708 101.6 18.364 101.298 17.5866C100.997 16.8092 100.854 15.9775 100.878 15.142C100.853 14.311 100.994 13.4836 101.292 12.7097C101.59 11.9358 102.039 11.2316 102.612 10.6395C103.176 10.0524 103.853 9.59038 104.601 9.28233C105.348 8.97429 106.15 8.8269 106.956 8.84941C108.344 8.82374 109.7 9.27017 110.811 10.118C111.874 10.8964 112.612 12.0534 112.878 13.3597H110.845C110.597 12.5875 110.093 11.9272 109.42 11.4917C108.708 11.0179 107.872 10.7725 107.021 10.7874C106.275 10.7743 105.539 10.9637 104.889 11.3361C104.264 11.7013 103.755 12.2416 103.422 12.8927C103.06 13.591 102.877 14.3716 102.891 15.1614C102.868 15.7403 102.958 16.318 103.154 16.8616C103.351 17.4051 103.651 17.9038 104.037 18.3291C104.424 18.7332 104.89 19.0501 105.404 19.2593C105.919 19.4684 106.471 19.5652 107.025 19.5433C107.912 19.5602 108.782 19.2965 109.516 18.7883C110.207 18.3215 110.706 17.6125 110.918 16.7959H106.658V15.0564Z" fill="white"/>
<path d="M115.094 21.2283V8.46802H117.004V21.2283H115.094Z" fill="white"/>
<path d="M127.456 20.0569C126.494 20.9553 125.237 21.4536 123.932 21.4536C122.627 21.4536 121.369 20.9553 120.407 20.0569C119.948 19.6038 119.586 19.0586 119.344 18.4558C119.102 17.853 118.985 17.2056 119.001 16.5546C118.987 15.6634 119.207 14.7846 119.639 14.0095C120.059 13.2637 120.674 12.6519 121.416 12.2428C122.192 11.8263 123.056 11.6086 123.934 11.6086C124.811 11.6086 125.675 11.8263 126.451 12.2428C127.193 12.651 127.807 13.2631 128.224 14.0095C128.655 14.7767 128.876 15.6474 128.866 16.5312C128.884 17.1864 128.768 17.8383 128.526 18.4454C128.283 19.0524 127.919 19.6013 127.456 20.0569ZM123.934 19.6133C124.475 19.6237 125.01 19.4896 125.485 19.2241C125.935 18.9689 126.305 18.59 126.554 18.1306C126.814 17.6424 126.946 17.0942 126.936 16.539C126.95 16.131 126.882 15.7244 126.737 15.3439C126.592 14.9633 126.372 14.6166 126.092 14.3247C125.507 13.7669 124.735 13.4566 123.934 13.4566C123.132 13.4566 122.36 13.7669 121.775 14.3247C121.495 14.6157 121.275 14.9616 121.13 15.3416C120.985 15.7216 120.917 16.1276 120.931 16.5351C120.917 16.942 120.985 17.3476 121.13 17.7269C121.275 18.1063 121.495 18.4515 121.775 18.7416C122.056 19.0305 122.393 19.2571 122.765 19.4071C123.136 19.5571 123.534 19.6273 123.934 19.6133Z" fill="white"/>
<path d="M135.811 11.6124C136.448 11.5923 137.082 11.7064 137.674 11.9474C138.265 12.1885 138.802 12.5514 139.249 13.0133C139.698 13.4761 140.05 14.0269 140.284 14.6322C140.518 15.2376 140.628 15.8849 140.609 16.5351C140.626 17.1818 140.515 17.8253 140.282 18.4271C140.049 19.0289 139.699 19.5766 139.253 20.0375C138.805 20.4981 138.268 20.8599 137.677 21.1002C137.085 21.3406 136.451 21.4544 135.815 21.4345C135.216 21.4491 134.619 21.3432 134.06 21.1229C133.501 20.9025 132.99 20.572 132.556 20.1503L132.319 21.2088H130.883V8.46802H132.793V12.7098C133.637 11.986 134.708 11.5964 135.811 11.6124ZM133.5 18.726C134.079 19.293 134.851 19.6096 135.654 19.6096C136.458 19.6096 137.23 19.293 137.809 18.726C138.091 18.4379 138.312 18.0943 138.459 17.7163C138.606 17.3383 138.676 16.9338 138.665 16.5273C138.676 16.1209 138.606 15.7163 138.459 15.3383C138.312 14.9603 138.091 14.6168 137.809 14.3286C137.527 14.0383 137.189 13.8109 136.816 13.6608C136.443 13.5108 136.044 13.4413 135.643 13.4569C135.109 13.4484 134.582 13.5826 134.115 13.8461C133.661 14.1048 133.285 14.4858 133.03 14.9474C132.77 15.4299 132.638 15.9732 132.648 16.5234C132.636 16.9302 132.705 17.3352 132.852 17.7138C132.998 18.0924 133.219 18.4368 133.5 18.726Z" fill="white"/>
<path d="M150.337 11.8419H151.807V21.2283H150.279L150.088 20.0803C149.657 20.5311 149.139 20.886 148.566 21.1224C147.993 21.3589 147.378 21.4717 146.761 21.454C146.123 21.4723 145.489 21.3567 144.898 21.1143C144.306 20.8719 143.77 20.508 143.322 20.0452C142.872 19.5869 142.518 19.0401 142.281 18.438C142.045 17.8359 141.931 17.1912 141.947 16.5429C141.93 15.8936 142.042 15.2476 142.278 14.6441C142.514 14.0406 142.867 13.4922 143.318 13.0324C143.768 12.5726 144.305 12.211 144.897 11.9695C145.489 11.7281 146.123 11.6118 146.761 11.6279C147.385 11.6094 148.007 11.7238 148.586 11.9636C149.165 12.2035 149.688 12.5636 150.123 13.0211L150.337 11.8419ZM144.732 18.7338C145.015 19.0232 145.353 19.2506 145.726 19.4018C146.098 19.5531 146.497 19.6251 146.898 19.6133C147.297 19.6259 147.694 19.5543 148.064 19.403C148.434 19.2516 148.77 19.0237 149.049 18.7338C149.329 18.4433 149.548 18.098 149.693 17.7188C149.839 17.3395 149.907 16.9342 149.893 16.5273C149.907 16.121 149.839 15.7163 149.694 15.3376C149.548 14.9589 149.329 14.6143 149.049 14.3247C148.767 14.0367 148.43 13.8109 148.059 13.6616C147.687 13.5123 147.29 13.4426 146.891 13.4569C146.357 13.4484 145.83 13.5826 145.362 13.8461C144.908 14.1038 144.532 14.4851 144.277 14.9474C144.016 15.4291 143.884 15.9729 143.895 16.5234C143.879 16.9306 143.944 17.3369 144.088 17.7172C144.232 18.0974 144.451 18.4435 144.732 18.7338Z" fill="white"/>
<path d="M154.504 21.2283V8.46802H156.395V21.2283H154.504Z" fill="white"/>
<path d="M12.7727 1.09272e-05C10.6279 -0.00250692 8.50404 0.430119 6.52511 1.27264C4.54617 2.11517 2.75179 3.35072 1.24665 4.9072C3.6866 3.00555 6.60409 2.05213 9.99914 2.04694C12.0678 2.0272 14.1159 2.46675 16.0009 3.33503C17.8131 4.16775 19.4063 5.4252 20.6504 7.00473C21.9177 8.61457 22.804 10.5001 23.2406 12.5151H18.6561C18.0633 10.7224 16.9124 9.17575 15.3782 8.10991C13.7965 7.03655 11.9299 6.48245 10.0297 6.52218C8.75128 6.48341 7.47905 6.71751 6.29474 7.20943C5.11044 7.70135 4.04028 8.44022 3.15302 9.37855C1.31923 11.2776 0.402344 13.6942 0.402344 16.6284C0.402344 19.5626 1.31032 21.9767 3.12627 23.8705C4.01747 24.8022 5.08879 25.5355 6.27246 26.0238C7.45614 26.5121 8.72642 26.7449 10.003 26.7074C11.9657 26.7501 13.89 26.1499 15.4928 24.9952C17.0508 23.8479 18.1893 22.2049 18.7287 20.3254H23.3437C22.7389 23.4366 21.0747 26.2303 18.6447 28.2134C16.1904 30.1976 13.1316 31.244 9.99914 31.171C7.23061 31.2305 4.50549 30.4635 2.15972 28.9645C4.13538 30.7101 6.4966 31.9424 9.04155 32.5561C11.5865 33.1699 14.2395 33.1468 16.7738 32.4889C19.3081 31.831 21.6483 30.5579 23.5945 28.7782C25.5406 26.9986 27.0348 24.7655 27.9493 22.2696C28.8638 19.7738 29.1715 17.0895 28.8459 14.4463C28.5204 11.803 27.5714 9.27929 26.08 7.09089C24.5886 4.90249 22.5992 3.11446 20.2819 1.87963C17.9645 0.6448 15.388 -0.00011425 12.7727 1.09272e-05Z" fill="white"/>
</svg>
