<svg width="1440" height="700" viewBox="0 0 1440 700" fill="none" xmlns="http://www.w3.org/2000/svg">
<mask id="mask0_2733_1557" style="mask-type:alpha" maskUnits="userSpaceOnUse" x="0" y="0" width="1440" height="700">
<path d="M0 700H1440V0H720H0V700Z" fill="#F85C3A"/>
</mask>
<g mask="url(#mask0_2733_1557)">
<path d="M1571.9 251.307C1574.99 251.232 1578 252.354 1580.28 254.441L1822.18 475.248C1832.3 484.482 1847.5 472.286 1840.68 460.409L1419.71 -272.575C1415.31 -280.241 1404.41 -280.676 1399.41 -273.385L1043.81 245.162C1038.27 253.235 1044.21 264.184 1054 263.945L1571.9 251.307Z" fill="white" fill-opacity="0.15"/>
<path d="M1136.97 75.2949C1143.09 66.4338 1135.34 54.6175 1124.78 56.6994L870.117 106.87C860.227 108.818 857.001 121.354 864.721 127.835L1003.95 244.708C1009.37 249.254 1017.52 248.156 1021.54 242.339L1136.97 75.2949Z" fill="white" fill-opacity="0.15"/>
<path d="M1156.84 30.2385C1159.35 29.7416 1161.64 28.4527 1163.37 26.5605L1290.85 -112.958C1298.21 -121.009 1291.88 -133.905 1281.01 -133.012L551.339 -73.08C539.353 -72.0955 536.106 -56.0519 546.766 -50.4838L822.611 93.5945C825.032 94.8593 827.813 95.26 830.493 94.7303L1156.84 30.2385Z" fill="white" fill-opacity="0.15"/>
<path d="M1517.05 500.075L1822.3 689.267C1833.34 696.108 1845.86 682.984 1838.51 672.277L1566.7 276.196C1564.4 272.844 1560.56 270.885 1556.49 270.99L1166.05 281.055C1153.82 281.371 1149.85 297.652 1160.57 303.56L1517.05 500.075Z" fill="white" fill-opacity="0.15"/>
<path d="M1415.7 679.915C1417.15 682.356 1419.41 684.207 1422.09 685.139L1860.44 837.693C1873.11 842.104 1882.37 825.551 1871.97 817.064L1499.05 512.607C1498.49 512.152 1497.89 511.749 1497.26 511.401L1266.56 383.884C1255.86 377.97 1244.2 389.973 1250.43 400.496L1415.7 679.915Z" fill="white" fill-opacity="0.15"/>
</g>
</svg>
